<svg height="80" width="70" class="" viewBox="0 0 80 70" xmlns="http://www.w3.org/2000/svg">
    <path d="M21.0189873,5.14492754 L6.11985759,5.14492754 L6.11985759,65.3405797 L21.0189873,65.3405797 L21.0189873,71 L0,71 L0,0 L21.0189873,0 L21.0189873,5.14492754 Z M59.9810127,65.8550725 L74.8801424,65.8550725 L74.8801424,5.65942029 L59.9810127,5.65942029 L59.9810127,0 L81,0 L81,71 L59.9810127,71 L59.9810127,65.8550725 Z M13.8417722,50.7539062 L13.8417722,20.0652174 L23.1337025,20.0652174 C32.4256329,20.0652174 39.4546578,25.4714108 39.4546578,35.3794158 C39.4546578,44.5237206 33.6071499,50.7539062 23.1937797,50.7539062 L13.8417722,50.7539062 Z M20.4102057,44.7045969 L23.0135483,44.7045969 C29.3416733,44.7045969 32.8862243,41.4287251 32.8862243,35.4799026 C32.8862243,29.6918591 29.6420589,26.1145267 23.0135483,26.1145267 L20.4102057,26.1145267 L20.4102057,44.7045969 Z M62.4642009,50.7539062 L60.1011669,44.4634284 L48.5663568,44.4634284 L46.2033228,50.7539062 L39.1943236,50.7539062 L51.6703422,20.0652174 L57.177413,20.0652174 L69.693483,50.7539062 L62.4642009,50.7539062 Z M50.5889537,39.0974298 L58.0985957,39.0974298 L54.3537876,29.1291327 L50.5889537,39.0974298 Z"></path>
</svg>
